<svg width="1376" height="1097" viewBox="0 0 1376 1097" fill="none" xmlns="http://www.w3.org/2000/svg">
<path d="M304.897 521.716C235.918 435.445 249.936 309.59 336.207 240.611L1044.99 -326.103C1131.26 -395.082 1257.12 -381.064 1326.1 -294.793L1660.76 123.767C1729.74 210.038 1715.72 335.892 1629.45 404.871L920.664 971.586C834.393 1040.56 708.538 1026.55 639.559 940.275L304.897 521.716Z" fill="url(#paint0_linear)"/>
<path d="M220.582 384.415C171.66 285.383 212.281 165.442 311.313 116.52L1124.94 -285.418C1223.97 -334.341 1343.91 -293.719 1392.83 -194.687L1630.19 285.784C1679.11 384.816 1638.49 504.757 1539.46 553.68L725.834 955.617C626.802 1004.54 506.862 963.918 457.939 864.886L220.582 384.415Z" fill="url(#paint1_linear)"/>
<path d="M92.4053 71.4993C58.4921 -33.6227 116.218 -146.333 221.34 -180.246L1180.24 -489.595C1285.36 -523.508 1398.07 -465.782 1431.98 -360.66L1657.81 339.337C1691.72 444.459 1634 557.169 1528.87 591.082L569.975 900.43C464.853 934.344 352.143 876.617 318.23 771.496L92.4053 71.4993Z" fill="url(#paint2_linear)"/>
<path opacity="0.2" d="M161.592 55.4904C125.138 -48.778 180.113 -162.856 284.382 -199.309L1235.49 -531.827C1339.76 -568.28 1453.84 -513.305 1490.29 -409.036L1733.03 285.276C1769.49 389.545 1714.51 503.622 1610.24 540.075L659.129 872.593C554.86 909.046 440.783 854.071 404.33 749.803L161.592 55.4904Z" stroke="#AB78C0" stroke-opacity="0.6" stroke-linecap="round" stroke-dasharray="50 10 30 50 10 30"/>
<path opacity="0.466667" d="M152.053 56.4411C119.261 -49.036 178.183 -161.126 283.66 -193.918L1245.8 -493.039C1351.28 -525.831 1463.37 -466.909 1496.16 -361.432L1714.52 340.929C1747.31 446.406 1688.39 558.496 1582.91 591.288L620.77 890.41C515.293 923.202 403.204 864.279 370.412 758.802L152.053 56.4411Z" stroke="#AB78C0" stroke-opacity="0.6" stroke-width="3.33333" stroke-linecap="round" stroke-dasharray="50 10 30 50 10 30"/>
<path opacity="0.733333" d="M142.441 57.159C113.35 -49.3983 176.149 -159.363 282.706 -188.454L1254.7 -453.816C1361.25 -482.907 1471.22 -420.108 1500.31 -313.551L1694.02 396.003C1723.12 502.56 1660.32 612.525 1553.76 641.616L581.768 906.978C475.211 936.069 365.246 873.27 336.155 766.713L142.441 57.159Z" stroke="#AB78C0" stroke-opacity="0.6" stroke-width="5.66667" stroke-linecap="round" stroke-dasharray="50 10 30 50 10 30"/>
<path d="M132.766 57.6419C107.411 -49.8657 174.01 -157.572 281.517 -182.926L1262.18 -414.204C1369.68 -439.559 1477.39 -372.96 1502.75 -265.453L1671.58 450.429C1696.93 557.937 1630.33 665.643 1522.83 690.997L542.167 922.275C434.659 947.63 326.953 881.031 301.599 773.524L132.766 57.6419Z" stroke="#AB78C0" stroke-opacity="0.6" stroke-width="8" stroke-linecap="round" stroke-dasharray="50 10 30 50 10 30"/>
<defs>
<linearGradient id="paint0_linear" x1="485.765" y1="765.734" x2="1407.99" y2="342.555" gradientUnits="userSpaceOnUse">
<stop stop-color="#EDC2FF"/>
<stop offset="1" stop-color="#42308C"/>
</linearGradient>
<linearGradient id="paint1_linear" x1="376.897" y1="530.46" x2="997.227" y2="493.682" gradientUnits="userSpaceOnUse">
<stop stop-color="#EDC2FF"/>
<stop offset="1" stop-color="#42308C"/>
</linearGradient>
<linearGradient id="paint2_linear" x1="1035.74" y1="-73.942" x2="990.129" y2="1446.66" gradientUnits="userSpaceOnUse">
<stop stop-color="#874BA1"/>
<stop offset="1" stop-color="#3B4292"/>
</linearGradient>
</defs>
</svg>
