<svg width="623" height="1000" viewBox="0 0 623 1000" fill="none" xmlns="http://www.w3.org/2000/svg">
<path opacity="0.2" fill-rule="evenodd" clip-rule="evenodd" d="M544.412 898.172C452.923 890.149 360.612 921.106 275.073 892.754C175.067 859.607 70.3978 815.984 34.5547 729.194C-1.23233 642.539 76.7833 554.534 103.678 464.854C131.527 371.992 118.089 265.432 194.69 195.222C275.575 121.085 398.815 92.3947 516.245 86.7082C634.283 80.9922 757.879 100.027 849.065 163.534C936.289 224.282 971.903 322.799 992.038 418.076C1009.59 501.115 971.153 580.37 954.818 663.966C935.747 761.571 984.125 892.162 888.481 948.063C790.953 1005.06 660.912 908.389 544.412 898.172Z" stroke="url(#paint0_linear)" stroke-opacity="0.5" stroke-width="0.941643" stroke-linecap="round" stroke-dasharray="62.54 31.27 18.76 62.54 31.27 18.76"/>
<path opacity="0.466667" fill-rule="evenodd" clip-rule="evenodd" d="M543.952 880.752C452.799 869.54 359.464 897.257 274.966 865.937C176.178 829.32 73.0949 782.071 40.3026 694.082C7.56152 606.232 88.601 521.003 118.609 432.316C149.682 340.483 139.971 233.519 218.976 166.025C302.399 94.756 426.565 70.3838 544.122 68.799C662.288 67.206 785.144 90.543 874.058 157.194C959.109 220.948 991.263 320.648 1008.06 416.57C1022.7 500.17 981.524 578.036 962.282 661.011C939.816 757.891 983.607 890.091 886.07 942.619C786.613 996.183 660.025 895.028 543.952 880.752Z" stroke="#F696A3" stroke-width="3.13881" stroke-linecap="round" stroke-dasharray="62.54 31.27 18.76 62.54 31.27 18.76"/>
<path opacity="0.733333" fill-rule="evenodd" clip-rule="evenodd" d="M544.066 863.423C453.359 849.037 359.114 873.479 275.761 839.23C178.31 799.188 76.9391 748.369 47.2376 659.29C17.5824 570.351 101.547 488.002 134.632 400.417C168.891 309.723 162.919 202.486 244.231 137.79C330.091 69.4762 455.031 49.452 572.572 51.9709C690.722 54.5028 812.689 82.1133 899.223 151.826C981.996 218.51 1010.65 319.271 1024.09 415.722C1035.8 499.782 991.935 576.163 969.81 658.416C943.976 754.452 983.127 888.1 883.816 937.193C782.55 987.253 659.569 881.741 544.066 863.423Z" stroke="#E66678" stroke-width="5.33598" stroke-linecap="round" stroke-dasharray="62.54 31.27 18.76 62.54 31.27 18.76"/>
<path fill-rule="evenodd" clip-rule="evenodd" d="M544.75 846.208C454.6 828.665 359.559 849.803 277.452 812.666C181.459 769.247 81.9229 714.922 55.3483 624.86C28.8151 534.94 115.602 455.572 151.724 369.194C189.127 279.752 186.902 172.371 270.422 110.553C358.613 45.2769 484.176 29.6253 601.558 36.2448C719.547 42.8985 840.476 74.7487 924.524 147.439C1004.92 216.971 1030.04 318.671 1040.11 415.532C1048.88 499.949 1002.37 574.753 977.389 656.184C948.219 751.26 982.682 886.193 881.719 931.79C778.767 978.285 659.544 868.546 544.75 846.208Z" stroke="#87091A" stroke-opacity="0.5" stroke-width="7.53314" stroke-linecap="round" stroke-dasharray="62.54 31.27 18.76 62.54 31.27 18.76"/>
<defs>
<linearGradient id="paint0_linear" x1="674.437" y1="1062.94" x2="413.849" y2="623.855" gradientUnits="userSpaceOnUse">
<stop stop-color="#C3B0FE"/>
<stop offset="1" stop-color="#6F3EFE"/>
</linearGradient>
</defs>
</svg>
