<svg width="201" height="375" viewBox="0 0 201 375" fill="none" xmlns="http://www.w3.org/2000/svg">
<circle cx="12" cy="12" r="12" fill="#8388C6" fill-opacity="0.1"/>
<circle cx="12" cy="212" r="12" fill="#8388C6" fill-opacity="0.1"/>
<circle cx="12" cy="62" r="12" fill="#8388C6" fill-opacity="0.1"/>
<circle cx="12" cy="262" r="12" fill="#8388C6" fill-opacity="0.1"/>
<circle cx="12" cy="112" r="12" fill="#8388C6" fill-opacity="0.1"/>
<circle cx="12" cy="312" r="12" fill="#8388C6" fill-opacity="0.1"/>
<circle cx="12" cy="162" r="12" fill="#8388C6" fill-opacity="0.1"/>
<circle cx="12" cy="362" r="12" fill="#8388C6" fill-opacity="0.1"/>
<circle cx="71" cy="12" r="12" fill="#8388C6" fill-opacity="0.1"/>
<circle cx="71" cy="212" r="12" fill="#8388C6" fill-opacity="0.1"/>
<circle cx="71" cy="62" r="12" fill="#8388C6" fill-opacity="0.1"/>
<circle cx="71" cy="262" r="12" fill="#8388C6" fill-opacity="0.1"/>
<circle cx="71" cy="112" r="12" fill="#8388C6" fill-opacity="0.1"/>
<circle cx="71" cy="312" r="12" fill="#8388C6" fill-opacity="0.1"/>
<circle cx="71" cy="162" r="12" fill="#8388C6" fill-opacity="0.1"/>
<circle cx="71" cy="362" r="12" fill="#8388C6" fill-opacity="0.1"/>
<circle cx="130" cy="13" r="12" fill="#8388C6" fill-opacity="0.1"/>
<circle cx="130" cy="213" r="12" fill="#8388C6" fill-opacity="0.1"/>
<circle cx="130" cy="63" r="12" fill="#8388C6" fill-opacity="0.1"/>
<circle cx="130" cy="263" r="12" fill="#8388C6" fill-opacity="0.1"/>
<circle cx="130" cy="113" r="12" fill="#8388C6" fill-opacity="0.1"/>
<circle cx="130" cy="313" r="12" fill="#8388C6" fill-opacity="0.1"/>
<circle cx="130" cy="163" r="12" fill="#8388C6" fill-opacity="0.1"/>
<circle cx="130" cy="363" r="12" fill="#8388C6" fill-opacity="0.1"/>
<circle cx="189" cy="13" r="12" fill="#8388C6" fill-opacity="0.1"/>
<circle cx="189" cy="213" r="12" fill="#8388C6" fill-opacity="0.1"/>
<circle cx="189" cy="63" r="12" fill="#8388C6" fill-opacity="0.1"/>
<circle cx="189" cy="263" r="12" fill="#8388C6" fill-opacity="0.1"/>
<circle cx="189" cy="113" r="12" fill="#8388C6" fill-opacity="0.1"/>
<circle cx="189" cy="313" r="12" fill="#8388C6" fill-opacity="0.1"/>
<circle cx="189" cy="163" r="12" fill="#8388C6" fill-opacity="0.1"/>
<circle cx="189" cy="363" r="12" fill="#8388C6" fill-opacity="0.1"/>
</svg>
